HIERARCHY
ROOT SimulationBone
{
	OFFSET 0.000000 0.000000 0.000000
	CHANNELS 6 Xposition Yposition Zposition Zrotation Yrotation Xrotation 
	JOINT Hips
	{
		OFFSET 0.000000 0.000000 0.000000
		CHANNELS 6 Xposition Yposition Zposition Zrotation Yrotation Xrotation 
		JOINT RightUpLeg
		{
			OFFSET 0.103458 1.857820 10.548502
			CHANNELS 3 Zrotation Yrotation Xrotation
			JOINT RightLeg
			{
				OFFSET 43.500000 -0.000023 -0.000011
				CHANNELS 3 Zrotation Yrotation Xrotation
				JOINT RightFoot
				{
					OFFSET 42.372192 0.000038 0.000002
					CHANNELS 3 Zrotation Yrotation Xrotation
					JOINT RightToe
					{
						OFFSET 17.299992 -0.000004 0.000006
						CHANNELS 3 Zrotation Yrotation Xrotation
						End Site
						{
							OFFSET 0.000000 0.000000 0.000000
						}
					}
				}
			}
		}
		JOINT LeftUpLeg
		{
			OFFSET 0.103461 1.857814 -10.548508
			CHANNELS 3 Zrotation Yrotation Xrotation
			JOINT LeftLeg
			{
				OFFSET 43.500042 -0.000015 0.000008
				CHANNELS 3 Zrotation Yrotation Xrotation
				JOINT LeftFoot
				{
					OFFSET 42.372253 0.000008 0.000006
					CHANNELS 3 Zrotation Yrotation Xrotation
					JOINT LeftToe
					{
						OFFSET 17.299973 -0.000014 0.000011
						CHANNELS 3 Zrotation Yrotation Xrotation
						End Site
						{
							OFFSET 0.000000 0.000000 0.000000
						}
					}
				}
			}
		}
		JOINT Spine
		{
			OFFSET 6.901966 -2.603737 -0.000007
			CHANNELS 3 Zrotation Yrotation Xrotation
			JOINT Spine1
			{
				OFFSET 12.588102 0.000017 0.000001
				CHANNELS 3 Zrotation Yrotation Xrotation
				JOINT Spine2
				{
					OFFSET 12.343197 -0.000013 0.000000
					CHANNELS 3 Zrotation Yrotation Xrotation
					JOINT Neck
					{
						OFFSET 25.832905 -0.000008 0.000000
						CHANNELS 3 Zrotation Yrotation Xrotation
						JOINT Head
						{
							OFFSET 11.766610 0.000009 -0.000002
							CHANNELS 3 Zrotation Yrotation Xrotation
							End Site
							{
								OFFSET 0.000000 0.000000 0.000000
							}
						}
					}
					JOINT RightShoulder
					{
						OFFSET 19.745903 -1.480377 6.000115
						CHANNELS 3 Zrotation Yrotation Xrotation
						JOINT RightArm
						{
							OFFSET 11.284125 -0.000014 -0.000024
							CHANNELS 3 Zrotation Yrotation Xrotation
							JOINT RightForeArm
							{
								OFFSET 33.000046 -0.000012 0.000029
								CHANNELS 3 Zrotation Yrotation Xrotation
								JOINT RightHand
								{
									OFFSET 25.199989 0.000034 0.000012
									CHANNELS 3 Zrotation Yrotation Xrotation
									End Site
									{
										OFFSET 0.000000 0.000000 0.000000
									}
								}
							}
						}
					}
					JOINT LeftShoulder
					{
						OFFSET 19.746098 -1.480362 -6.000071
						CHANNELS 3 Zrotation Yrotation Xrotation
						JOINT LeftArm
						{
							OFFSET 11.284137 -0.000006 -0.000008
							CHANNELS 3 Zrotation Yrotation Xrotation
							JOINT LeftForeArm
							{
								OFFSET 33.000095 0.000017 0.000000
								CHANNELS 3 Zrotation Yrotation Xrotation
								JOINT LeftHand
								{
									OFFSET 25.199778 0.000144 0.000423
									CHANNELS 3 Zrotation Yrotation Xrotation
									End Site
									{
										OFFSET 0.000000 0.000000 0.000000
									}
								}
							}
						}
					}
				}
			}
		}
	}
}
MOTION
Frames: 7
Frame Time: 0.033333
-123.110379 0.000000 210.930233 180.000000 84.657496 180.000000 -15.352563 81.838760 0.973047 69.468546 2.174002 -171.707538 179.627527 -15.972401 -177.522764 -20.009458 -3.289110 -16.366342 77.260880 5.569826 -23.997465 21.454557 0.003097 0.000020 121.973723 -6.521402 178.098617 -85.159905 0.967943 8.889140 79.456055 -5.149159 4.640238 21.454553 -0.003089 0.000001 10.230541 1.614879 -1.288347 10.417198 3.339167 -2.426913 10.098839 3.324320 -2.447048 -29.890305 6.101659 1.250349 -15.476001 -4.100834 5.357713 -173.620963 -72.826100 -7.947818 -32.668491 56.307718 -2.370960 -139.347908 3.895362 4.107477 -17.331757 -7.949692 11.074345 178.685180 78.567509 0.199276 42.677928 -42.633283 -53.940326 -96.441602 1.788841 -2.716587 -12.498040 11.055897 -24.804681 
-121.480952 0.000000 203.595414 180.000000 85.084465 180.000000 -13.719014 83.223190 0.783997 69.746999 3.591526 -174.686522 -171.737785 -18.157809 178.856987 -14.165055 -3.946870 -18.103454 67.524281 7.743253 -15.939474 21.454560 0.003109 0.000014 120.420634 -6.928502 175.798305 -75.565518 1.390563 11.093086 81.799350 -6.733069 4.709478 21.454557 -0.003086 -0.000001 9.914538 2.001031 -1.138822 9.784775 4.091117 -2.105500 9.466032 4.078182 -2.130205 -33.734683 7.823990 1.817522 -11.854580 -4.964797 7.026252 -169.062003 -71.659005 -12.631414 -28.858096 57.304611 -0.703598 -136.131203 3.748702 4.010406 -15.030453 -8.534575 11.141730 172.544676 78.518509 -6.048704 39.965039 -38.037781 -52.368232 -94.804597 2.095730 -2.665209 -16.176195 10.579785 -25.732891 
-119.844757 0.000000 196.003862 180.000000 85.501687 180.000000 -12.806269 83.703751 0.332595 70.296470 2.659592 -176.280655 -170.002384 -16.721688 179.273669 -23.889606 -3.199089 -14.894959 70.750405 6.169587 -14.622977 21.454562 0.003110 0.000016 120.637465 -5.372891 173.591594 -66.538972 0.613154 15.339075 85.679443 -9.872314 3.739290 21.454553 -0.003096 0.000000 9.654248 1.857086 -1.242706 9.261889 3.807640 -2.333995 8.943322 3.793324 -2.356962 -35.078817 10.091126 1.841001 -9.585851 -7.264170 8.793081 -169.025995 -70.859121 -12.668033 -20.323206 57.210204 3.334500 -129.267914 3.440086 3.785775 -14.756431 -7.721733 12.497070 172.242932 77.519027 -6.384830 33.123211 -37.234189 -47.662542 -90.781834 2.797107 -2.535488 -17.052858 10.084251 -24.891716 
-118.202696 0.000000 188.171250 180.000000 85.909401 180.000000 -12.445922 83.398262 -0.200826 71.738497 2.364414 -177.959419 -172.163333 -14.270792 -177.823702 -42.954076 -1.288173 -9.893392 73.447401 3.803840 -11.119691 21.454553 0.003101 0.000017 123.277893 -5.010795 172.167800 -58.611322 0.353943 16.650519 86.699197 -10.588344 4.702467 21.454553 -0.003097 0.000001 9.685918 1.840686 -1.095232 9.330457 3.763622 -2.039481 9.011837 3.751110 -2.062196 -35.540077 10.805983 2.030191 -8.461017 -8.809668 9.714541 -170.011960 -70.482389 -11.651925 -11.323350 57.002467 7.918092 -119.107598 2.552666 3.446267 -13.841448 -6.228225 15.220540 173.227162 76.600824 -5.407725 22.312510 -39.006213 -42.860608 -84.032733 6.018860 -2.463173 -13.844688 10.340538 -19.478994 
-116.555672 0.000000 180.113251 180.000000 86.307842 180.000000 -12.058777 82.458267 -0.627258 73.808371 3.563908 179.241898 -174.513997 -12.233992 -174.467770 -63.863765 -1.568372 -6.633159 74.576083 1.655238 -10.710892 21.454558 0.003112 0.000020 128.042852 -6.444503 172.575945 -54.267499 1.753400 11.566541 82.433457 -6.408205 7.653313 21.454551 -0.003095 -0.000001 9.921965 2.165804 -0.432972 9.825196 4.360517 -0.680812 9.506115 4.356168 -0.707179 -35.076645 9.319352 2.640416 -8.268601 -9.069275 9.584577 -169.307986 -70.267518 -12.377196 -4.195180 57.744666 12.994753 -105.933707 0.648592 3.013405 -11.990239 -5.485250 15.072011 176.639224 76.102685 -1.937919 9.583902 -40.506686 -36.038216 -77.556368 9.048638 -2.394557 -11.747507 10.165838 -17.354515 
-114.904589 0.000000 171.845540 180.000000 86.697236 180.000000 -11.319646 80.791290 -0.736176 76.517720 5.204670 176.210416 -176.981403 -10.288489 -176.107986 -84.150369 0.615175 -5.291014 73.868325 0.501457 -10.891717 21.454560 0.003102 0.000011 134.138768 -8.543796 175.566283 -59.843317 4.003904 8.319695 91.382788 -5.298971 3.049885 21.454551 -0.003093 0.000000 10.193302 2.627795 0.315872 10.404347 5.216516 0.867984 10.084839 5.221537 0.836364 -30.972090 6.407056 3.791132 -10.680314 -8.364447 9.079456 -167.048942 -69.265215 -14.710513 1.701667 58.169982 19.684076 -91.068408 -2.924000 2.599029 -12.209893 -7.071029 15.408287 173.695194 75.241931 -4.967239 0.504820 -39.519970 -28.198706 -76.176724 10.449652 -2.433354 -11.880352 7.988408 -21.562205 
-113.250349 0.000000 163.383788 180.000000 87.077800 180.000000 -10.812995 79.805206 -0.698002 78.048500 6.134570 173.711844 176.815197 -8.955307 -179.845069 -101.962211 3.987839 -5.012692 75.946233 0.870913 -9.025500 21.454557 0.003111 0.000019 141.731603 -10.554597 179.618607 -61.461478 2.037303 5.757563 98.565408 -3.833224 0.492347 21.454553 -0.003098 0.000002 10.188317 2.894352 1.088716 10.437211 5.678667 2.437505 10.117713 5.693139 2.403074 -27.171249 4.061499 4.194247 -12.600001 -8.396652 8.491873 -167.037973 -68.830904 -14.723559 6.790953 58.123639 32.484390 -75.073676 -12.894551 2.593993 -12.038096 -10.648725 15.293458 178.330010 74.730507 -0.238588 -9.522855 -38.986392 -19.365022 -79.220004 9.582574 -2.503006 -11.654583 6.850566 -21.718658 
